# Blender 4.0.2
# www.blender.org
mtllib tourch.mtl
o Torch_Wall
v -0.095253 0.565362 0.080355
v -0.095253 0.216989 0.080355
v -0.013432 0.565362 0.080355
v -0.013432 0.216989 0.080355
v -0.076965 0.714894 0.080355
v -0.031720 0.714894 0.080355
v -0.119408 0.596971 0.080355
v 0.010723 0.596971 0.080355
v -0.070184 0.090580 0.080355
v -0.038501 0.090580 0.080355
v 0.004997 0.185825 0.080355
v -0.113681 0.185825 0.080355
v -0.077357 0.385421 0.080355
v -0.031327 0.385421 0.080355
v -0.044074 0.174497 0.086351
v -0.064611 0.174497 0.086337
v -0.064611 0.195034 0.086337
v -0.044074 0.195034 0.086351
v -0.100154 0.174497 0.199174
v -0.082039 0.174497 0.208851
v -0.082039 0.195034 0.208851
v -0.100154 0.195034 0.199174
v -0.009881 0.174497 0.199249
v -0.028074 0.174497 0.208777
v -0.028074 0.195034 0.208777
v -0.009881 0.195034 0.199249
v -0.100035 0.174497 0.255502
v -0.082157 0.174497 0.245394
v -0.082157 0.195034 0.245394
v -0.100035 0.195034 0.255502
v -0.010038 0.174497 0.255502
v -0.027917 0.174497 0.245394
v -0.027917 0.195034 0.245394
v -0.010038 0.195034 0.255502
v -0.055037 0.174497 0.282415
v -0.055037 0.174497 0.261878
v -0.055037 0.195034 0.261878
v -0.055037 0.195034 0.282415
v -0.044121 0.174497 0.160849
v -0.064659 0.174497 0.160835
v -0.064659 0.195034 0.160835
v -0.044121 0.195034 0.160849
v -0.072343 0.174497 0.179113
v -0.060924 0.174497 0.196184
v -0.060924 0.195034 0.196184
v -0.072343 0.195034 0.179113
v -0.036745 0.174497 0.179208
v -0.048443 0.174497 0.196089
v -0.048443 0.195034 0.196089
v -0.036745 0.195034 0.179208
v -0.044074 0.608874 0.086333
v -0.064611 0.608874 0.086355
v -0.064611 0.629412 0.086355
v -0.044074 0.629412 0.086333
v -0.112112 0.608874 0.252171
v -0.093997 0.608874 0.261847
v -0.093997 0.629412 0.261847
v -0.112112 0.629412 0.252171
v 0.002077 0.608874 0.252245
v -0.016116 0.608874 0.261773
v -0.016116 0.629412 0.261773
v 0.002077 0.629412 0.252245
v -0.111993 0.608874 0.323896
v -0.094115 0.608874 0.313789
v -0.094115 0.629412 0.313789
v -0.111993 0.629412 0.323896
v 0.001920 0.608874 0.323896
v -0.015959 0.608874 0.313789
v -0.015959 0.629412 0.313789
v 0.001920 0.629412 0.323896
v -0.055037 0.608874 0.358006
v -0.055037 0.608874 0.337468
v -0.055037 0.629412 0.337468
v -0.055037 0.629412 0.358006
v -0.043944 0.608874 0.204600
v -0.064482 0.608874 0.204623
v -0.064482 0.629412 0.204623
v -0.043944 0.629412 0.204600
v -0.076189 0.608874 0.226683
v -0.064770 0.608874 0.243753
v -0.064770 0.629412 0.243753
v -0.076189 0.629412 0.226683
v -0.032619 0.608874 0.226777
v -0.044316 0.608874 0.243658
v -0.044316 0.629412 0.243658
v -0.032619 0.629412 0.226777
v -0.013432 0.565362 0.096457
v -0.095253 0.565362 0.096457
v -0.077357 0.385421 0.096457
v -0.095253 0.216989 0.096457
v -0.013432 0.216989 0.096457
v -0.031327 0.385421 0.096457
v -0.031720 0.714894 0.096457
v -0.076965 0.714894 0.096457
v -0.119408 0.596971 0.096457
v 0.010723 0.596971 0.096457
v -0.070184 0.090580 0.096457
v -0.038501 0.090580 0.096457
v 0.004997 0.185825 0.096457
v -0.113681 0.185825 0.096457
v -0.028751 0.109284 0.214585
v -0.008083 0.764258 0.310203
v -0.041547 0.106082 0.236515
v -0.031212 0.758471 0.349845
v -0.067138 0.106082 0.236515
v -0.077472 0.758471 0.349845
v -0.079933 0.109284 0.214585
v -0.100602 0.764258 0.310203
v -0.067138 0.112485 0.192656
v -0.077472 0.770045 0.270561
v -0.041547 0.112485 0.192656
v -0.031212 0.770045 0.270561
v -0.041146 0.081242 0.210492
v -0.047744 0.079592 0.221800
v -0.060941 0.079592 0.221800
v -0.067539 0.081242 0.210492
v -0.060941 0.082893 0.199183
v -0.047744 0.082893 0.199183
v -0.038030 0.775732 0.340431
v -0.021718 0.779813 0.312474
v -0.070654 0.775732 0.340431
v -0.086966 0.779813 0.312474
v -0.070654 0.783895 0.284517
v -0.038030 0.783895 0.284517
v -0.029955 0.787154 0.356234
v -0.005568 0.793256 0.314437
v -0.078729 0.787154 0.356234
v -0.103117 0.793256 0.314437
v -0.078729 0.799358 0.272640
v -0.029955 0.799358 0.272640
v -0.029955 0.868791 0.368152
v -0.005568 0.874893 0.326355
v -0.078729 0.868791 0.368152
v -0.103117 0.874893 0.326355
v -0.078729 0.880995 0.284558
v -0.029955 0.880995 0.284558
v -0.036778 0.884230 0.358462
v -0.019214 0.888625 0.328359
v -0.071906 0.884230 0.358462
v -0.089471 0.888625 0.328359
v -0.071906 0.893020 0.298256
v -0.036778 0.893020 0.298256
v -0.080762 0.827464 0.365677
v -0.107183 0.834075 0.320396
v -0.001502 0.834075 0.320396
v -0.027922 0.827464 0.365677
v -0.027922 0.840685 0.275115
v -0.080762 0.840685 0.275115
v -0.028453 0.816938 0.363211
v -0.028913 0.807818 0.361074
v -0.003350 0.815525 0.317688
v -0.079819 0.808749 0.361292
v -0.106185 0.844090 0.321858
v -0.028416 0.837506 0.366278
v -0.080477 0.833261 0.366024
v -0.080195 0.839002 0.366368
v -0.018594 0.829798 0.349690
v -0.029835 0.789535 0.356791
v -0.078981 0.792147 0.357403
v -0.079251 0.797496 0.358656
v -0.079367 0.812317 0.273416
v -0.105408 0.816263 0.317795
v -0.103798 0.800092 0.315435
v -0.028251 0.833995 0.274714
v -0.106458 0.826802 0.319334
v -0.080156 0.828364 0.274377
v -0.029300 0.812674 0.273437
v -0.079003 0.804919 0.272973
v -0.018336 0.804365 0.292362
v -0.004293 0.806055 0.316305
v -0.029654 0.793116 0.357630
v -0.009301 0.840114 0.308357
v -0.016764 0.827134 0.294499
v -0.080079 0.854232 0.278288
v -0.003641 0.855549 0.323531
v -0.028402 0.850197 0.277343
v -0.029064 0.863320 0.280417
v -0.004875 0.867936 0.325339
v -0.029760 0.864835 0.367915
v -0.029088 0.851170 0.367096
v -0.079346 0.856257 0.367401
v -0.079683 0.849399 0.366990
v -0.079404 0.867619 0.281424
v -0.103907 0.866957 0.325196
v -0.105343 0.852544 0.323092
v -0.034667 0.889300 0.294019
v -0.076507 0.884912 0.289019
v -0.012183 0.881550 0.327326
v -0.101026 0.874370 0.329938
v -0.073899 0.879722 0.361292
v -0.073899 0.879722 0.361292
v -0.045057 0.868791 0.368152
vn -0.0000 -0.0000 -1.0000
vn -0.0000 1.0000 -0.0000
vn -0.0000 -1.0000 -0.0000
vn 0.0076 -0.0000 1.0000
vn 0.0006 -0.0000 -1.0000
vn 0.9279 -0.0000 -0.3728
vn -0.9218 -0.0000 -0.3875
vn -1.0000 -0.0000 -0.0006
vn 1.0000 -0.0000 0.0006
vn 0.5145 -0.0000 0.8575
vn -0.5850 -0.0000 -0.8110
vn -0.5287 -0.0000 0.8488
vn 0.5979 -0.0000 -0.8015
vn 1.0000 -0.0000 0.0032
vn -1.0000 -0.0000 0.0021
vn -1.0000 -0.0000 0.0043
vn 1.0000 -0.0000 0.0028
vn 0.5194 -0.0000 -0.8545
vn -0.5133 -0.0000 0.8582
vn -0.5194 -0.0000 -0.8545
vn 0.5133 -0.0000 0.8582
vn 0.0046 -0.0000 1.0000
vn 0.8906 -0.0000 -0.4548
vn -0.8833 -0.0000 -0.4688
vn -0.0011 -0.0000 -1.0000
vn -1.0000 -0.0000 0.0011
vn 1.0000 -0.0000 -0.0011
vn 0.5264 -0.0000 0.8503
vn -0.5787 -0.0000 -0.8156
vn -0.5405 -0.0000 0.8414
vn 0.5917 -0.0000 -0.8061
vn 1.0000 -0.0000 0.0023
vn -1.0000 -0.0000 0.0017
vn -1.0000 -0.0000 0.0030
vn 1.0000 -0.0000 0.0022
vn 0.5182 -0.0000 -0.8552
vn -0.5138 -0.0000 0.8579
vn -0.5182 -0.0000 -0.8552
vn 0.5138 -0.0000 0.8579
vn -0.0000 -0.0000 1.0000
vn -0.9096 -0.4154 -0.0000
vn -0.7946 -0.6072 -0.0000
vn 0.9096 -0.4154 -0.0000
vn 0.9409 0.3387 -0.0000
vn -0.8608 0.5090 -0.0000
vn -0.9409 0.3387 -0.0000
vn 0.7946 -0.6072 -0.0000
vn -0.9944 0.1057 -0.0000
vn -0.9951 -0.0990 -0.0000
vn 0.9944 0.1057 -0.0000
vn 0.9951 -0.0990 -0.0000
vn 0.8608 0.5090 -0.0000
vn 0.8657 -0.0990 0.4907
vn -0.0000 -0.1712 0.9852
vn -0.8657 -0.0990 0.4907
vn -0.8657 0.0455 -0.4985
vn -0.6924 0.6521 -0.3088
vn -0.0000 0.1177 -0.9931
vn 0.8657 0.0455 -0.4985
vn 0.8099 -0.4180 0.4115
vn -0.0000 -0.9895 -0.1445
vn -0.8099 -0.4180 0.4115
vn 0.8099 -0.2830 -0.5138
vn -0.8099 -0.2830 -0.5138
vn -0.0000 -0.4856 0.8742
vn -0.0000 -0.2154 -0.9765
vn -0.6034 -0.6595 -0.4483
vn -0.0000 0.4788 0.8779
vn -0.0000 0.7098 -0.7044
vn 0.6924 0.5366 0.4823
vn -0.6924 0.5366 0.4823
vn 0.6924 0.6521 -0.3088
vn -0.8629 0.0122 0.5053
vn -0.0000 -0.8105 0.5858
vn -0.0000 -0.6092 -0.7930
vn -0.6034 -0.7601 0.2411
vn 0.6034 -0.7601 0.2411
vn 0.6034 -0.6595 -0.4483
vn -0.0000 0.6374 0.7705
vn 0.8629 0.0122 0.5052
vn 0.8629 0.1561 -0.4807
vn -0.8629 0.1561 -0.4807
vn -0.0000 -0.0598 0.9982
vn -0.0000 0.2281 -0.9736
vn -0.0000 0.9895 0.1445
vn -0.0000 0.7515 -0.6597
vn -0.6593 0.5866 0.4703
vn 0.6593 0.5866 0.4703
vn 0.6593 0.6965 -0.2830
vn -0.6593 0.6965 -0.2830
vn -0.0000 0.0598 -0.9982
vn -0.0000 -0.2281 0.9736
vn -0.8629 -0.0122 -0.5052
vn 0.8629 -0.0122 -0.5052
vn 0.8629 -0.1561 0.4807
vn -0.8629 -0.1561 0.4807
vn -0.8629 0.0122 0.5052
vn -0.8629 -0.0122 -0.5053
vn -0.0000 0.5316 0.8470
vn 0.5144 -0.0000 0.8575
vn -0.0000 -0.9895 -0.1444
vn -0.9904 -0.0619 0.1238
vn 0.8629 0.0122 0.5053
vn 0.9979 -0.0156 -0.0624
vn 0.8629 -0.0122 -0.5053
vn -0.9923 -0.0000 0.1240
vt 0.774238 0.949927
vt 0.675726 0.951959
vt 0.227609 0.958546
vt 0.322277 0.955504
vt 0.327050 0.777135
vt 0.322277 0.955504
vt 0.322277 0.955504
vt 0.322277 0.955504
s 0
usemtl Metal_Rusty
f 14/1/1 2/1/1 13/1/1
f 5/1/1 8/1/1 7/1/1
f 7/1/1 3/1/1 1/1/1
f 10/1/1 12/1/1 11/1/1
f 11/1/1 2/1/1 4/1/1
f 3/1/1 13/1/1 1/1/1
f 49/2/2 50/2/2 42/2/2
f 39/2/3 44/2/3 40/2/3
f 48/2/3 44/2/3 39/2/3
f 46/2/2 49/2/2 41/2/2
f 48/2/4 49/2/4 45/2/4
f 49/2/2 42/2/2 41/2/2
f 45/2/2 49/2/2 46/2/2
f 44/2/3 43/2/3 40/2/3
f 47/2/3 48/2/3 39/2/3
f 16/2/5 18/2/5 15/2/5
f 50/2/6 39/2/6 42/2/6
f 48/2/4 45/2/4 44/2/4
f 46/2/7 40/2/7 43/2/7
f 15/2/3 40/2/3 16/2/3
f 16/2/8 41/2/8 17/2/8
f 17/2/2 42/2/2 18/2/2
f 18/2/9 39/2/9 15/2/9
f 21/2/10 44/2/10 45/2/10
f 46/2/2 21/2/2 45/2/2
f 19/2/11 46/2/11 43/2/11
f 24/2/3 47/2/3 23/2/3
f 25/2/12 48/2/12 24/2/12
f 25/2/2 50/2/2 49/2/2
f 23/2/13 50/2/13 26/2/13
f 28/2/3 19/2/3 20/2/3
f 29/2/14 20/2/14 21/2/14
f 22/2/2 29/2/2 21/2/2
f 27/2/15 22/2/15 19/2/15
f 23/2/3 32/2/3 24/2/3
f 24/2/16 33/2/16 25/2/16
f 26/2/2 33/2/2 34/2/2
f 26/2/17 31/2/17 23/2/17
f 36/2/3 27/2/3 28/2/3
f 37/2/18 28/2/18 29/2/18
f 30/2/2 37/2/2 29/2/2
f 35/2/19 30/2/19 27/2/19
f 31/2/3 36/2/3 32/2/3
f 32/2/20 37/2/20 33/2/20
f 34/2/2 37/2/2 38/2/2
f 34/2/21 35/2/21 31/2/21
f 20/2/3 43/2/3 44/2/3
f 81/2/22 84/2/22 85/2/22
f 86/2/23 75/2/23 78/2/23
f 82/2/24 76/2/24 79/2/24
f 77/2/2 82/2/2 81/2/2
f 77/2/2 85/2/2 86/2/2
f 84/2/3 76/2/3 75/2/3
f 77/2/2 86/2/2 78/2/2
f 52/2/25 54/2/25 51/2/25
f 79/2/3 76/2/3 80/2/3
f 83/2/3 84/2/3 75/2/3
f 51/2/3 76/2/3 52/2/3
f 52/2/26 77/2/26 53/2/26
f 54/2/2 77/2/2 78/2/2
f 54/2/27 75/2/27 51/2/27
f 56/2/3 79/2/3 80/2/3
f 57/2/28 80/2/28 81/2/28
f 82/2/2 57/2/2 81/2/2
f 55/2/29 82/2/29 79/2/29
f 60/2/3 83/2/3 59/2/3
f 61/2/30 84/2/30 60/2/30
f 61/2/2 86/2/2 85/2/2
f 59/2/31 86/2/31 62/2/31
f 64/2/3 55/2/3 56/2/3
f 65/2/32 56/2/32 57/2/32
f 58/2/2 65/2/2 57/2/2
f 63/2/33 58/2/33 55/2/33
f 59/2/3 68/2/3 60/2/3
f 60/2/34 69/2/34 61/2/34
f 62/2/2 69/2/2 70/2/2
f 62/2/35 67/2/35 59/2/35
f 72/2/3 63/2/3 64/2/3
f 73/2/36 64/2/36 65/2/36
f 66/2/2 73/2/2 65/2/2
f 71/2/37 66/2/37 63/2/37
f 67/2/3 72/2/3 68/2/3
f 68/2/38 73/2/38 69/2/38
f 70/2/2 73/2/2 74/2/2
f 70/2/39 71/2/39 67/2/39
f 90/1/40 92/1/40 89/1/40
f 96/1/40 94/1/40 95/1/40
f 87/1/40 95/1/40 88/1/40
f 100/1/40 98/1/40 99/1/40
f 90/1/40 99/1/40 91/1/40
f 89/1/40 87/1/40 88/1/40
f 9/1/41 100/1/41 12/1/41
f 1/1/42 95/1/42 7/1/42
f 11/1/43 98/1/43 10/1/43
f 6/1/44 96/1/44 8/1/44
f 12/1/45 90/1/45 2/1/45
f 7/1/46 94/1/46 5/1/46
f 8/1/47 87/1/47 3/1/47
f 2/1/48 89/1/48 13/1/48
f 13/1/49 88/1/49 1/1/49
f 14/1/50 91/1/50 4/1/50
f 10/1/3 97/1/3 9/1/3
f 3/1/51 92/1/51 14/1/51
f 4/1/52 99/1/52 11/1/52
f 5/1/2 93/1/2 6/1/2
f 14/1/1 4/1/1 2/1/1
f 5/1/1 6/1/1 8/1/1
f 7/1/1 8/1/1 3/1/1
f 10/1/1 9/1/1 12/1/1
f 11/1/1 12/1/1 2/1/1
f 3/1/1 14/1/1 13/1/1
f 16/2/5 17/2/5 18/2/5
f 50/2/6 47/2/6 39/2/6
f 46/2/7 41/2/7 40/2/7
f 15/2/3 39/2/3 40/2/3
f 16/2/8 40/2/8 41/2/8
f 17/2/2 41/2/2 42/2/2
f 18/2/9 42/2/9 39/2/9
f 21/2/100 20/2/100 44/2/100
f 46/2/2 22/2/2 21/2/2
f 19/2/11 22/2/11 46/2/11
f 24/2/3 48/2/3 47/2/3
f 25/2/12 49/2/12 48/2/12
f 25/2/2 26/2/2 50/2/2
f 23/2/13 47/2/13 50/2/13
f 28/2/3 27/2/3 19/2/3
f 29/2/14 28/2/14 20/2/14
f 22/2/2 30/2/2 29/2/2
f 27/2/15 30/2/15 22/2/15
f 23/2/3 31/2/3 32/2/3
f 24/2/16 32/2/16 33/2/16
f 26/2/2 25/2/2 33/2/2
f 26/2/17 34/2/17 31/2/17
f 36/2/3 35/2/3 27/2/3
f 37/2/18 36/2/18 28/2/18
f 30/2/2 38/2/2 37/2/2
f 35/2/19 38/2/19 30/2/19
f 31/2/3 35/2/3 36/2/3
f 32/2/20 36/2/20 37/2/20
f 34/2/2 33/2/2 37/2/2
f 34/2/21 38/2/21 35/2/21
f 20/2/3 19/2/3 43/2/3
f 81/2/22 80/2/22 84/2/22
f 86/2/23 83/2/23 75/2/23
f 82/2/24 77/2/24 76/2/24
f 77/2/2 81/2/2 85/2/2
f 84/2/3 80/2/3 76/2/3
f 52/2/25 53/2/25 54/2/25
f 51/2/3 75/2/3 76/2/3
f 52/2/26 76/2/26 77/2/26
f 54/2/2 53/2/2 77/2/2
f 54/2/27 78/2/27 75/2/27
f 56/2/3 55/2/3 79/2/3
f 57/2/28 56/2/28 80/2/28
f 82/2/2 58/2/2 57/2/2
f 55/2/29 58/2/29 82/2/29
f 60/2/3 84/2/3 83/2/3
f 61/2/30 85/2/30 84/2/30
f 61/2/2 62/2/2 86/2/2
f 59/2/31 83/2/31 86/2/31
f 64/2/3 63/2/3 55/2/3
f 65/2/32 64/2/32 56/2/32
f 58/2/2 66/2/2 65/2/2
f 63/2/33 66/2/33 58/2/33
f 59/2/3 67/2/3 68/2/3
f 60/2/34 68/2/34 69/2/34
f 62/2/2 61/2/2 69/2/2
f 62/2/35 70/2/35 67/2/35
f 72/2/3 71/2/3 63/2/3
f 73/2/36 72/2/36 64/2/36
f 66/2/2 74/2/2 73/2/2
f 71/2/37 74/2/37 66/2/37
f 67/2/3 71/2/3 72/2/3
f 68/2/38 72/2/38 73/2/38
f 70/2/2 69/2/2 73/2/2
f 70/2/39 74/2/39 71/2/39
f 90/1/40 91/1/40 92/1/40
f 96/1/40 93/1/40 94/1/40
f 87/1/40 96/1/40 95/1/40
f 100/1/40 97/1/40 98/1/40
f 90/1/40 100/1/40 99/1/40
f 89/1/40 92/1/40 87/1/40
f 9/1/41 97/1/41 100/1/41
f 1/1/42 88/1/42 95/1/42
f 11/1/43 99/1/43 98/1/43
f 6/1/44 93/1/44 96/1/44
f 12/1/45 100/1/45 90/1/45
f 7/1/46 95/1/46 94/1/46
f 8/1/47 96/1/47 87/1/47
f 2/1/48 90/1/48 89/1/48
f 13/1/49 89/1/49 88/1/49
f 14/1/50 92/1/50 91/1/50
f 10/1/3 98/1/3 97/1/3
f 3/1/51 87/1/51 92/1/51
f 4/1/52 91/1/52 99/1/52
f 5/1/2 94/1/2 93/1/2
usemtl Wood_Basic
f 102/3/53 103/3/53 101/3/53
f 104/3/54 105/3/54 103/3/54
f 106/3/55 107/3/55 105/3/55
f 108/3/56 109/3/56 107/3/56
f 110/3/57 122/3/57 123/3/57
f 110/3/58 111/3/58 109/3/58
f 111/3/59 102/3/59 101/3/59
f 101/3/60 114/3/60 113/3/60
f 114/3/61 116/3/61 118/3/61
f 107/3/62 115/3/62 105/3/62
f 111/3/63 113/3/63 118/3/63
f 109/3/64 116/3/64 107/3/64
f 105/3/65 114/3/65 103/3/65
f 111/3/66 117/3/66 109/3/66
f 122/4/67 129/4/67 123/4/67
f 104/3/68 121/3/68 106/3/68
f 110/3/69 124/3/69 112/3/69
f 102/3/70 119/3/70 104/3/70
f 108/3/71 121/3/71 122/3/71
f 112/3/72 120/3/72 102/3/72
f 144/4/73 155/4/73 153/4/73
f 119/4/74 127/4/74 121/4/74
f 123/4/75 130/4/75 124/4/75
f 121/4/76 128/4/76 122/4/76
f 119/4/77 126/4/77 125/4/77
f 120/4/78 130/4/78 126/4/78
f 172/6/81 176/6/81 175/4/81
f 144/4/82 185/4/82 174/4/82
f 143/4/83 146/4/83 155/4/83
f 148/4/84 176/6/84 147/4/84
f 138/4/85 141/4/85 139/4/85
f 136/4/86 135/4/86 187/4/86
f 189/4/87 139/4/87 140/4/87
f 132/4/88 188/4/88 137/4/88
f 132/4/89 136/4/89 188/4/89
f 134/4/90 141/4/90 187/4/90
f 130/4/91 129/4/91 168/4/91
f 127/4/92 158/4/92 159/4/92
f 128/4/93 161/4/93 168/4/93
f 126/4/95 158/4/95 125/4/95
f 128/4/96 159/4/96 163/4/96
f 151/4/95 157/4/95 146/4/95
f 149/4/92 143/4/92 152/4/92
f 154/4/83 181/4/83 182/4/83
f 156/4/73 185/4/73 153/4/73
f 157/4/80 175/4/80 180/4/80
f 158/4/92 150/4/92 152/4/92
f 160/4/96 143/4/96 165/4/96
f 162/4/93 166/4/93 161/4/93
f 164/4/91 148/4/91 147/4/91
f 148/4/98 165/4/98 144/4/98
f 161/4/91 164/4/91 167/4/91
f 164/4/94 173/7/94 151/4/94
f 169/4/94 126/4/94 130/4/94
f 170/4/95 150/4/95 171/4/95
f 174/4/84 183/4/84 136/4/84
f 177/6/81 132/4/81 178/4/81
f 179/4/80 132/4/80 131/4/80
f 179/4/83 192/4/83 133/4/83
f 184/4/82 135/4/82 183/4/82
f 182/4/97 133/4/97 189/4/97
f 186/8/89 138/4/89 188/4/89
f 141/4/86 186/8/86 187/4/86
f 192/4/99 137/4/99 139/4/99
f 102/3/53 104/3/53 103/3/53
f 104/3/54 106/3/54 105/3/54
f 106/3/55 108/3/55 107/3/55
f 108/3/56 110/3/56 109/3/56
f 110/3/57 108/3/57 122/3/57
f 110/3/58 112/3/58 111/3/58
f 111/3/59 112/3/59 102/3/59
f 101/3/60 103/3/60 114/3/60
f 118/3/61 113/3/61 114/3/61
f 114/3/61 115/3/61 116/3/61
f 116/3/101 117/3/101 118/3/101
f 107/3/62 116/3/62 115/3/62
f 111/3/63 101/3/63 113/3/63
f 109/3/64 117/3/64 116/3/64
f 105/3/65 115/3/65 114/3/65
f 111/3/66 118/3/66 117/3/66
f 122/4/67 128/4/67 129/4/67
f 104/3/68 119/3/68 121/3/68
f 110/3/69 123/3/69 124/3/69
f 102/3/70 120/3/70 119/3/70
f 108/3/71 106/3/71 121/3/71
f 112/3/72 124/3/72 120/3/72
f 144/4/97 143/4/97 155/4/97
f 119/4/74 125/4/74 127/4/74
f 123/4/75 129/4/75 130/4/75
f 121/4/76 127/4/76 128/4/76
f 119/4/77 120/4/77 126/4/77
f 120/4/78 124/4/78 130/4/78
f 175/4/81 145/4/81 172/6/81
f 172/6/81 147/4/81 176/6/81
f 174/4/82 148/4/82 144/4/82
f 144/4/102 153/4/102 185/4/102
f 185/4/82 183/4/82 174/4/82
f 148/4/84 174/4/84 176/6/84
f 139/4/85 137/4/85 138/4/85
f 138/4/85 142/4/85 141/4/85
f 141/4/85 140/4/85 139/4/85
f 140/4/87 134/4/87 189/4/87
f 189/4/87 190/4/87 139/4/87
f 137/4/88 131/4/88 132/4/88
f 188/4/88 138/4/88 137/4/88
f 187/4/90 135/4/90 134/4/90
f 134/4/90 140/4/90 141/4/90
f 127/4/92 125/4/92 158/4/92
f 168/4/93 129/4/93 128/4/93
f 128/4/98 163/4/98 161/4/98
f 126/4/95 171/4/95 158/4/95
f 128/4/96 127/4/96 159/4/96
f 146/4/95 149/4/95 151/4/95
f 151/4/95 145/4/95 157/4/95
f 149/4/92 146/4/92 143/4/92
f 182/4/83 156/4/83 154/4/83
f 154/4/83 180/4/83 181/4/83
f 156/4/97 182/4/97 185/4/97
f 180/4/103 154/4/103 157/4/103
f 157/4/103 145/4/103 175/4/103
f 175/4/80 178/4/80 180/4/80
f 152/4/92 160/4/92 158/4/92
f 158/4/104 171/4/104 150/4/104
f 165/4/96 162/4/96 160/4/96
f 160/4/104 152/4/104 143/4/104
f 143/4/96 144/4/96 165/4/96
f 162/4/93 165/4/93 166/4/93
f 167/4/91 168/4/91 161/4/91
f 161/4/91 166/4/91 164/4/91
f 151/4/94 170/4/94 169/4/94
f 169/4/94 167/4/94 164/4/94
f 164/4/94 147/4/94 173/7/94
f 173/7/105 145/4/105 151/4/105
f 151/4/94 169/4/94 164/4/94
f 170/4/95 151/4/95 150/4/95
f 136/4/84 177/6/84 174/4/84
f 183/4/84 135/4/84 136/4/84
f 178/4/81 175/4/81 177/6/81
f 177/6/81 136/4/81 132/4/81
f 179/4/103 178/4/103 132/4/103
f 133/4/83 181/4/83 179/4/83
f 179/4/83 131/4/83 192/4/83
f 184/4/82 134/4/82 135/4/82
f 134/4/97 184/4/97 182/4/97
f 182/4/106 181/4/106 133/4/106
f 189/4/97 134/4/97 182/4/97
f 186/8/89 142/4/89 138/4/89
f 141/4/86 142/4/86 186/8/86
f 139/4/99 190/4/99 192/4/99
f 192/4/99 131/4/99 137/4/99
usemtl Ember
f 133/5/79 190/5/79 191/5/79
f 146/5/80 157/5/80 154/5/80
f 126/5/94 169/5/94 170/5/94
f 150/5/95 151/5/95 149/5/95
f 149/5/92 152/5/92 150/5/92
f 155/5/83 154/5/83 156/5/83
f 153/5/97 155/5/97 156/5/97
f 159/5/92 158/5/92 160/5/92
f 163/5/96 160/5/96 162/5/96
f 161/5/93 163/5/93 162/5/93
f 148/5/91 164/5/91 166/5/91
f 166/5/93 165/5/93 148/5/93
f 167/5/94 169/5/94 130/5/94
f 167/5/91 130/5/91 168/5/91
f 171/5/95 126/5/95 170/5/95
f 147/5/81 172/5/81 145/5/81
f 145/5/94 173/5/94 147/5/94
f 176/5/84 174/5/84 177/5/84
f 177/5/81 175/5/81 176/5/81
f 180/5/80 178/5/80 179/5/80
f 179/5/83 181/5/83 180/5/83
f 183/5/82 185/5/82 184/5/82
f 185/5/97 182/5/97 184/5/97
f 186/5/89 188/5/89 136/5/89
f 186/5/86 136/5/86 187/5/86
f 189/5/40 191/5/40 190/5/40
f 133/5/99 192/5/99 190/5/99
f 155/5/83 146/5/83 154/5/83
f 163/5/96 159/5/96 160/5/96
f 189/5/87 133/5/87 191/5/87
